<?xml version="1.0"?>
<!--Icons from directory ""-->
<svg xmlns="http://www.w3.org/2000/svg" width="18" height="32" viewBox="0 0 18 32"><svg preserveAspectRatio="xMidYMid" width="18" height="18" id="MAGNIFYINGGLASS" y="0"><path d="M17.129 14.795a1.649 1.649 0 1 1-2.333 2.334L9.96 12.293a6.55 6.55 0 0 1-3.348.919 6.6 6.6 0 1 1 6.6-6.6 6.547 6.547 0 0 1-.919 3.347l4.836 4.836zM6.612 1.662a4.95 4.95 0 1 0 0 9.9 4.95 4.95 0 0 0 0-9.9z" fill-rule="evenodd" fill="#fff"/></svg><svg preserveAspectRatio="xMidYMid" width="18" height="14" id="SHOPPINGCART" y="18"><path d="M17.538 3.1l.002.001-2.475 5.5a.823.823 0 0 1-.698.484L7.24 9.56l.411 1.177h7.762a1.65 1.65 0 1 1-1.651 1.65h-7.7a1.65 1.65 0 1 1-3.3 0c0-.911.739-1.65 1.65-1.65h1.491L2.727 1.662H.837a.825.825 0 0 1 0-1.65h2.475c.36 0 .663.232.776.554l.003-.001.481 1.372h12.215a.825.825 0 0 1 .751 1.163zm-12.389.487l1.525 4.357 7.089-.472 1.749-3.885H5.149z" fill-rule="evenodd" fill="#fff"/></svg></svg>
