<?xml version="1.0"?>
<!--Icons from directory ""-->
<svg xmlns="http://www.w3.org/2000/svg" width="26" height="99" viewBox="0 0 26 99"><svg preserveAspectRatio="xMidYMid" width="13" height="26" id="facebook" y="0"><defs><filter id="facebook-a" filterUnits="userSpaceOnUse"><feFlood flood-color="#f38181" flood-opacity="1"/><feComposite operator="in" in2="SourceGraphic"/><feBlend in2="SourceGraphic" result="colorOverlay"/></filter></defs><path d="M11.996.011v4.121s-3.038-.302-3.799.862c-.416.636-.169 2.499-.206 3.837h4.03c-.341 1.565-.585 2.625-.835 3.979H7.969v12.803H2.387V12.86H.012V8.831h2.349c.12-2.945.166-5.864 1.629-7.35C5.634-.189 7.203.011 11.996.011z" fill-rule="evenodd" fill="#fff" filter="url(#facebook-a)"/></svg><svg preserveAspectRatio="xMidYMid" width="26" height="26" id="instagram" y="26"><path d="M22.387 25.612h-19.2a3.2 3.2 0 0 1-3.2-3.2v-19.2a3.2 3.2 0 0 1 3.2-3.2h19.2a3.2 3.2 0 0 1 3.201 3.2v19.2a3.2 3.2 0 0 1-3.201 3.2zm-9.599-17.76a4.957 4.957 0 0 0-4.499 2.88h-.004c-.009.018-.014.037-.022.055a5.241 5.241 0 0 0-.129.321c-.019.053-.039.103-.057.156a5.474 5.474 0 0 0-.095.339c-.013.054-.03.106-.041.161a5.507 5.507 0 0 0-.062.367c-.006.051-.017.099-.022.15a4.96 4.96 0 1 0 9.861 0c-.005-.051-.016-.099-.023-.15a4.926 4.926 0 0 0-.061-.367c-.012-.055-.028-.107-.041-.161a5.474 5.474 0 0 0-.095-.339c-.018-.053-.038-.103-.057-.156a5.241 5.241 0 0 0-.129-.321l-.022-.055h-.004a4.956 4.956 0 0 0-4.498-2.88zm9.919-3.68a1.28 1.28 0 0 0-1.28-1.28h-2.56a1.28 1.28 0 0 0-1.279 1.28v2.56c0 .707.573 1.28 1.279 1.28h2.56a1.28 1.28 0 0 0 1.28-1.28v-2.56zm0 6.56h-2.359a7.84 7.84 0 1 1-15.121 0h-2.36v10.72c0 .707.574 1.28 1.28 1.28h17.28a1.28 1.28 0 0 0 1.28-1.28v-10.72z" fill-rule="evenodd" fill="#f38181"/></svg><svg preserveAspectRatio="xMidYMid" width="20" height="26" id="pinterest" y="52"><path d="M8.145 16.635c-.21.833-.42 1.706-.638 2.56-.216.842-.405 1.696-.718 2.47-.519 1.282-1.178 2.519-2.044 3.521-.574.667-.452.401-.625.365-.132-.027-.144-.157-.17-.344-.14-1.019-.044-2.196.008-3.34.06-1.304.334-2.388.588-3.471.485-2.063.947-4.087 1.435-6.164.033-.138.121-.366.09-.445-.221-.577-.365-1.095-.428-1.7a5.414 5.414 0 0 1 .139-1.943c.276-1.058.913-1.996 1.894-2.339.624-.216 1.315-.118 1.735.133.432.258.728.666.867 1.245.147.615.039 1.351-.08 1.892-.267 1.218-.618 2.133-.937 3.309-.158.583-.337 1.182-.189 1.812.135.578.436.976.847 1.275.425.31.929.48 1.625.455 1.227-.043 2.081-.828 2.651-1.568.912-1.184 1.465-2.784 1.675-4.686.067-.613.117-1.318.069-2.014-.087-1.284-.489-2.316-1.126-3.117-.606-.762-1.466-1.369-2.512-1.711-1.037-.338-2.472-.451-3.748-.233-2.317.397-3.951 1.715-4.914 3.533a7.085 7.085 0 0 0-.837 3.41c0 1.051.259 1.865.678 2.5.132.201.328.367.458.597.185.326-.028.811-.12 1.164-.109.425-.121 1.012-.617 1.023-.206.003-.464-.147-.638-.244C1.258 13.859.465 12.547.14 10.846a8.944 8.944 0 0 1 0-3.238 9.278 9.278 0 0 1 .937-2.581 9.246 9.246 0 0 1 3.459-3.563C5.652.804 6.912.341 8.444.118a16.318 16.318 0 0 1 1.605-.131 9.64 9.64 0 0 1 4.326.809 8.863 8.863 0 0 1 2.98 2.146c.837.915 1.447 1.979 1.834 3.309.201.692.398 1.432.398 2.287 0 .858-.182 1.613-.308 2.368-.474 2.829-1.819 5.141-3.838 6.458a6.626 6.626 0 0 1-1.754.809c-.667.195-1.428.34-2.243.283a4.59 4.59 0 0 1-1.984-.577c-.54-.305-.994-.678-1.315-1.244z" fill-rule="evenodd" fill="#f38181"/></svg><svg preserveAspectRatio="xMidYMid" width="26" height="21" id="twitter" y="78"><path d="M17.419.007c2.034-.036 3.117.705 4.151 1.648.878-.075 2.019-.566 2.691-.907l.653-.357c-.383 1.037-.904 1.848-1.704 2.465-.177.136-.354.322-.576.409v.012c1.139-.011 2.079-.526 2.972-.805v.014c-.469.745-1.103 1.501-1.781 2.043l-.82.651c.015 1.207-.018 2.359-.243 3.373-1.312 5.895-4.787 9.898-10.289 11.612-1.975.616-5.168.868-7.431.306-1.123-.278-2.137-.593-3.088-1.008a12.428 12.428 0 0 1-1.486-.767l-.462-.281c.511.015 1.108.156 1.679.064.516-.084 1.022-.062 1.499-.166 1.188-.261 2.243-.606 3.152-1.137.44-.258 1.109-.56 1.422-.932-.59.01-1.125-.127-1.563-.282-1.699-.599-2.688-1.703-3.332-3.36.515.057 1.998.191 2.345-.102-.648-.035-1.271-.411-1.717-.689-1.366-.856-2.481-2.29-2.473-4.497.18.085.359.171.539.255.343.145.692.223 1.101.307.174.036.519.137.718.063H3.35c-.264-.306-.695-.512-.961-.842C1.513 6.007.691 4.33 1.211 2.332A6.14 6.14 0 0 1 1.774.965.315.315 0 0 1 1.8.978c.102.214.33.37.474.549.448.555 1 1.055 1.563 1.494 1.918 1.501 3.645 2.422 6.419 3.105.704.173 1.517.305 2.358.307-.236-.688-.16-1.8.026-2.466.467-1.673 1.482-2.879 2.972-3.525a6.33 6.33 0 0 1 1.166-.359l.641-.076z" fill-rule="evenodd" fill="#f38181"/></svg></svg>
