<svg xmlns="http://www.w3.org/2000/svg" xmlns:xlink="http://www.w3.org/1999/xlink" preserveAspectRatio="xMidYMid" width="13" height="26" viewBox="0 0 13 26">
  <defs>
    <style>

      .cls-2 {
        fill: #f38181;
      }
    </style>
  </defs>
  <path d="M11.996,0.011 C11.996,1.488 11.996,4.132 11.996,4.132 C11.996,4.132 8.958,3.830 8.197,4.994 C7.781,5.630 8.028,7.493 7.991,8.831 C9.317,8.831 10.695,8.831 12.021,8.831 C11.680,10.396 11.436,11.456 11.186,12.810 C10.038,12.810 7.969,12.810 7.969,12.810 C7.969,12.810 7.969,25.613 7.969,25.613 C7.969,25.613 4.172,25.613 2.387,25.613 C2.388,21.666 2.386,17.061 2.387,12.860 C1.520,12.860 0.879,12.860 0.012,12.860 C0.012,11.384 0.012,10.308 0.012,8.831 C0.853,8.831 1.519,8.831 2.361,8.831 C2.481,5.886 2.527,2.967 3.990,1.481 C5.634,-0.189 7.203,0.011 11.996,0.011 Z" id="path-1" class="cls-2" fill-rule="evenodd"/>
</svg>
