<svg xmlns="http://www.w3.org/2000/svg" xmlns:xlink="http://www.w3.org/1999/xlink" preserveAspectRatio="xMidYMid" width="26" height="26" viewBox="0 0 26 26">
  <defs>
    <style>

      .cls-2 {
        fill: #f38181;
      }
    </style>
  </defs>
  <path d="M22.387,25.612 C22.387,25.612 3.187,25.612 3.187,25.612 C1.420,25.612 -0.013,24.179 -0.013,22.412 C-0.013,22.412 -0.013,3.212 -0.013,3.212 C-0.013,1.445 1.420,0.012 3.187,0.012 C3.187,0.012 22.387,0.012 22.387,0.012 C24.155,0.012 25.588,1.445 25.588,3.212 C25.588,3.212 25.588,22.412 25.588,22.412 C25.588,24.179 24.155,25.612 22.387,25.612 ZM12.788,7.852 C10.792,7.852 9.076,9.033 8.289,10.732 C8.289,10.732 8.285,10.732 8.285,10.732 C8.276,10.750 8.271,10.769 8.263,10.787 C8.216,10.892 8.174,11.000 8.134,11.108 C8.115,11.161 8.095,11.211 8.077,11.264 C8.041,11.375 8.011,11.489 7.982,11.603 C7.969,11.657 7.952,11.709 7.941,11.764 C7.915,11.885 7.897,12.007 7.879,12.131 C7.873,12.182 7.862,12.230 7.857,12.281 C7.838,12.456 7.827,12.633 7.827,12.812 C7.827,15.552 10.048,17.772 12.788,17.772 C15.527,17.772 17.747,15.552 17.747,12.812 C17.747,12.633 17.737,12.456 17.718,12.281 C17.713,12.230 17.702,12.182 17.695,12.131 C17.678,12.007 17.660,11.885 17.634,11.764 C17.622,11.709 17.606,11.657 17.593,11.603 C17.564,11.489 17.534,11.375 17.498,11.264 C17.480,11.211 17.460,11.161 17.441,11.108 C17.401,11.000 17.359,10.892 17.312,10.787 C17.304,10.769 17.298,10.750 17.290,10.732 C17.290,10.732 17.286,10.732 17.286,10.732 C16.499,9.033 14.783,7.852 12.788,7.852 ZM22.707,4.172 C22.707,3.465 22.134,2.892 21.427,2.892 C21.427,2.892 18.867,2.892 18.867,2.892 C18.161,2.892 17.588,3.465 17.588,4.172 C17.588,4.172 17.588,6.732 17.588,6.732 C17.588,7.439 18.161,8.012 18.867,8.012 C18.867,8.012 21.427,8.012 21.427,8.012 C22.134,8.012 22.707,7.439 22.707,6.732 C22.707,6.732 22.707,4.172 22.707,4.172 ZM22.707,10.732 C22.707,10.732 20.348,10.732 20.348,10.732 C20.530,11.395 20.628,12.092 20.628,12.812 C20.628,17.142 17.117,20.652 12.788,20.652 C8.458,20.652 4.948,17.142 4.948,12.812 C4.948,12.092 5.045,11.395 5.227,10.732 C5.227,10.732 2.867,10.732 2.867,10.732 C2.867,10.732 2.867,21.452 2.867,21.452 C2.867,22.159 3.441,22.732 4.147,22.732 C4.147,22.732 21.427,22.732 21.427,22.732 C22.134,22.732 22.707,22.159 22.707,21.452 C22.707,21.452 22.707,10.732 22.707,10.732 Z" id="path-1" class="cls-2" fill-rule="evenodd"/>
</svg>
