<svg xmlns="http://www.w3.org/2000/svg" xmlns:xlink="http://www.w3.org/1999/xlink" preserveAspectRatio="xMidYMid" width="20" height="26" viewBox="0 0 20 26">
  <defs>
    <style>

      .cls-2 {
        fill: #f38181;
      }
    </style>
  </defs>
  <path d="M8.145,16.635 C7.935,17.468 7.725,18.341 7.507,19.195 C7.291,20.037 7.102,20.891 6.789,21.665 C6.270,22.947 5.611,24.184 4.745,25.186 C4.171,25.853 4.293,25.587 4.120,25.551 C3.988,25.524 3.976,25.394 3.950,25.207 C3.810,24.188 3.906,23.011 3.958,21.867 C4.018,20.563 4.292,19.479 4.546,18.396 C5.031,16.333 5.493,14.309 5.981,12.232 C6.014,12.094 6.102,11.866 6.071,11.787 C5.850,11.210 5.706,10.692 5.643,10.087 C5.570,9.391 5.626,8.743 5.782,8.144 C6.058,7.086 6.695,6.148 7.676,5.805 C8.300,5.589 8.991,5.687 9.411,5.938 C9.843,6.196 10.139,6.604 10.278,7.183 C10.425,7.798 10.317,8.534 10.198,9.075 C9.931,10.293 9.580,11.208 9.261,12.384 C9.103,12.967 8.924,13.566 9.072,14.196 C9.207,14.774 9.508,15.172 9.919,15.471 C10.344,15.781 10.848,15.951 11.544,15.926 C12.771,15.883 13.625,15.098 14.195,14.358 C15.107,13.174 15.660,11.574 15.870,9.672 C15.937,9.059 15.987,8.354 15.939,7.658 C15.852,6.374 15.450,5.342 14.813,4.541 C14.207,3.779 13.347,3.172 12.301,2.830 C11.264,2.492 9.829,2.379 8.553,2.597 C6.236,2.994 4.602,4.312 3.639,6.130 C3.135,7.082 2.802,8.178 2.802,9.540 C2.802,10.591 3.061,11.405 3.480,12.040 C3.612,12.241 3.808,12.407 3.938,12.637 C4.123,12.963 3.910,13.448 3.818,13.801 C3.709,14.226 3.697,14.813 3.201,14.824 C2.995,14.827 2.737,14.677 2.563,14.580 C1.258,13.859 0.465,12.547 0.140,10.846 C-0.057,9.813 -0.057,8.607 0.140,7.608 C0.331,6.642 0.685,5.750 1.077,5.027 C1.892,3.524 3.084,2.323 4.536,1.464 C5.652,0.804 6.912,0.341 8.444,0.118 C8.952,0.044 9.478,0.013 10.049,-0.013 C11.716,-0.092 13.233,0.286 14.375,0.796 C15.580,1.335 16.541,2.053 17.355,2.942 C18.192,3.857 18.802,4.921 19.189,6.251 C19.390,6.943 19.587,7.683 19.587,8.538 C19.587,9.396 19.405,10.151 19.279,10.906 C18.805,13.735 17.460,16.047 15.441,17.364 C14.952,17.683 14.359,17.977 13.687,18.173 C13.020,18.368 12.259,18.513 11.444,18.456 C10.652,18.402 10.005,18.187 9.460,17.879 C8.920,17.574 8.466,17.201 8.145,16.635 Z" id="path-1" class="cls-2" fill-rule="evenodd"/>
</svg>
