<svg xmlns="http://www.w3.org/2000/svg" xmlns:xlink="http://www.w3.org/1999/xlink" preserveAspectRatio="xMidYMid" width="26" height="21" viewBox="0 0 26 21">
  <defs>
    <style>

      .cls-2 {
        fill: #f38181;
      }
    </style>
  </defs>
  <path d="M17.419,0.007 C19.453,-0.029 20.536,0.712 21.570,1.655 C22.448,1.580 23.589,1.089 24.261,0.748 C24.479,0.629 24.697,0.509 24.914,0.391 C24.531,1.428 24.010,2.239 23.210,2.856 C23.033,2.992 22.856,3.178 22.634,3.265 C22.634,3.268 22.634,3.273 22.634,3.277 C23.773,3.266 24.713,2.751 25.606,2.472 C25.606,2.477 25.606,2.481 25.606,2.486 C25.137,3.231 24.503,3.987 23.825,4.529 C23.552,4.746 23.279,4.963 23.005,5.180 C23.020,6.387 22.987,7.539 22.762,8.553 C21.450,14.448 17.975,18.451 12.473,20.165 C10.498,20.781 7.305,21.033 5.042,20.471 C3.919,20.193 2.905,19.878 1.954,19.463 C1.425,19.231 0.936,18.981 0.468,18.696 C0.314,18.602 0.160,18.508 0.006,18.415 C0.517,18.430 1.114,18.571 1.685,18.479 C2.201,18.395 2.707,18.417 3.184,18.313 C4.372,18.052 5.427,17.707 6.336,17.176 C6.776,16.918 7.445,16.616 7.758,16.244 C7.168,16.254 6.633,16.117 6.195,15.962 C4.496,15.363 3.507,14.259 2.863,12.602 C3.378,12.659 4.861,12.793 5.208,12.500 C4.560,12.465 3.937,12.089 3.491,11.811 C2.125,10.955 1.010,9.521 1.018,7.314 C1.198,7.399 1.377,7.485 1.557,7.569 C1.900,7.714 2.249,7.792 2.658,7.876 C2.832,7.912 3.177,8.013 3.376,7.939 C3.367,7.939 3.359,7.939 3.350,7.939 C3.086,7.633 2.655,7.427 2.389,7.097 C1.513,6.007 0.691,4.330 1.211,2.332 C1.343,1.825 1.552,1.378 1.774,0.965 C1.783,0.969 1.791,0.973 1.800,0.978 C1.902,1.192 2.130,1.348 2.274,1.527 C2.722,2.082 3.274,2.582 3.837,3.021 C5.755,4.522 7.482,5.443 10.256,6.126 C10.960,6.299 11.773,6.431 12.614,6.433 C12.378,5.745 12.454,4.633 12.640,3.967 C13.107,2.294 14.122,1.088 15.612,0.442 C15.968,0.287 16.363,0.174 16.778,0.083 C16.992,0.058 17.205,0.032 17.419,0.007 Z" id="path-1" class="cls-2" fill-rule="evenodd"/>
</svg>
