<svg xmlns="http://www.w3.org/2000/svg" xmlns:xlink="http://www.w3.org/1999/xlink"><defs>
    <style>

      .cls-2 {
        fill: #f38181;
      }
    </style>
  
    <style>

      .cls-2 {
        fill: #f38181;
      }
    </style>
  
    <style>

      .cls-2 {
        fill: #f38181;
      }
    </style>
  
    <style>

      .cls-2 {
        fill: #f38181;
      }
    </style>
  </defs><symbol id="facebook" viewBox="0 0 13 26" preserveAspectRatio="xMidYMid">
  
  <path d="M11.996,0.011 C11.996,1.488 11.996,4.132 11.996,4.132 C11.996,4.132 8.958,3.830 8.197,4.994 C7.781,5.630 8.028,7.493 7.991,8.831 C9.317,8.831 10.695,8.831 12.021,8.831 C11.680,10.396 11.436,11.456 11.186,12.810 C10.038,12.810 7.969,12.810 7.969,12.810 C7.969,12.810 7.969,25.613 7.969,25.613 C7.969,25.613 4.172,25.613 2.387,25.613 C2.388,21.666 2.386,17.061 2.387,12.860 C1.520,12.860 0.879,12.860 0.012,12.860 C0.012,11.384 0.012,10.308 0.012,8.831 C0.853,8.831 1.519,8.831 2.361,8.831 C2.481,5.886 2.527,2.967 3.990,1.481 C5.634,-0.189 7.203,0.011 11.996,0.011 Z" id="path-1" class="cls-2" fill-rule="evenodd"/>
</symbol><symbol id="instagram" viewBox="0 0 26 26" preserveAspectRatio="xMidYMid">
  
  <path d="M22.387,25.612 C22.387,25.612 3.187,25.612 3.187,25.612 C1.420,25.612 -0.013,24.179 -0.013,22.412 C-0.013,22.412 -0.013,3.212 -0.013,3.212 C-0.013,1.445 1.420,0.012 3.187,0.012 C3.187,0.012 22.387,0.012 22.387,0.012 C24.155,0.012 25.588,1.445 25.588,3.212 C25.588,3.212 25.588,22.412 25.588,22.412 C25.588,24.179 24.155,25.612 22.387,25.612 ZM12.788,7.852 C10.792,7.852 9.076,9.033 8.289,10.732 C8.289,10.732 8.285,10.732 8.285,10.732 C8.276,10.750 8.271,10.769 8.263,10.787 C8.216,10.892 8.174,11.000 8.134,11.108 C8.115,11.161 8.095,11.211 8.077,11.264 C8.041,11.375 8.011,11.489 7.982,11.603 C7.969,11.657 7.952,11.709 7.941,11.764 C7.915,11.885 7.897,12.007 7.879,12.131 C7.873,12.182 7.862,12.230 7.857,12.281 C7.838,12.456 7.827,12.633 7.827,12.812 C7.827,15.552 10.048,17.772 12.788,17.772 C15.527,17.772 17.747,15.552 17.747,12.812 C17.747,12.633 17.737,12.456 17.718,12.281 C17.713,12.230 17.702,12.182 17.695,12.131 C17.678,12.007 17.660,11.885 17.634,11.764 C17.622,11.709 17.606,11.657 17.593,11.603 C17.564,11.489 17.534,11.375 17.498,11.264 C17.480,11.211 17.460,11.161 17.441,11.108 C17.401,11.000 17.359,10.892 17.312,10.787 C17.304,10.769 17.298,10.750 17.290,10.732 C17.290,10.732 17.286,10.732 17.286,10.732 C16.499,9.033 14.783,7.852 12.788,7.852 ZM22.707,4.172 C22.707,3.465 22.134,2.892 21.427,2.892 C21.427,2.892 18.867,2.892 18.867,2.892 C18.161,2.892 17.588,3.465 17.588,4.172 C17.588,4.172 17.588,6.732 17.588,6.732 C17.588,7.439 18.161,8.012 18.867,8.012 C18.867,8.012 21.427,8.012 21.427,8.012 C22.134,8.012 22.707,7.439 22.707,6.732 C22.707,6.732 22.707,4.172 22.707,4.172 ZM22.707,10.732 C22.707,10.732 20.348,10.732 20.348,10.732 C20.530,11.395 20.628,12.092 20.628,12.812 C20.628,17.142 17.117,20.652 12.788,20.652 C8.458,20.652 4.948,17.142 4.948,12.812 C4.948,12.092 5.045,11.395 5.227,10.732 C5.227,10.732 2.867,10.732 2.867,10.732 C2.867,10.732 2.867,21.452 2.867,21.452 C2.867,22.159 3.441,22.732 4.147,22.732 C4.147,22.732 21.427,22.732 21.427,22.732 C22.134,22.732 22.707,22.159 22.707,21.452 C22.707,21.452 22.707,10.732 22.707,10.732 Z" id="path-1" class="cls-2" fill-rule="evenodd"/>
</symbol><symbol id="pinterest" viewBox="0 0 20 26" preserveAspectRatio="xMidYMid">
  
  <path d="M8.145,16.635 C7.935,17.468 7.725,18.341 7.507,19.195 C7.291,20.037 7.102,20.891 6.789,21.665 C6.270,22.947 5.611,24.184 4.745,25.186 C4.171,25.853 4.293,25.587 4.120,25.551 C3.988,25.524 3.976,25.394 3.950,25.207 C3.810,24.188 3.906,23.011 3.958,21.867 C4.018,20.563 4.292,19.479 4.546,18.396 C5.031,16.333 5.493,14.309 5.981,12.232 C6.014,12.094 6.102,11.866 6.071,11.787 C5.850,11.210 5.706,10.692 5.643,10.087 C5.570,9.391 5.626,8.743 5.782,8.144 C6.058,7.086 6.695,6.148 7.676,5.805 C8.300,5.589 8.991,5.687 9.411,5.938 C9.843,6.196 10.139,6.604 10.278,7.183 C10.425,7.798 10.317,8.534 10.198,9.075 C9.931,10.293 9.580,11.208 9.261,12.384 C9.103,12.967 8.924,13.566 9.072,14.196 C9.207,14.774 9.508,15.172 9.919,15.471 C10.344,15.781 10.848,15.951 11.544,15.926 C12.771,15.883 13.625,15.098 14.195,14.358 C15.107,13.174 15.660,11.574 15.870,9.672 C15.937,9.059 15.987,8.354 15.939,7.658 C15.852,6.374 15.450,5.342 14.813,4.541 C14.207,3.779 13.347,3.172 12.301,2.830 C11.264,2.492 9.829,2.379 8.553,2.597 C6.236,2.994 4.602,4.312 3.639,6.130 C3.135,7.082 2.802,8.178 2.802,9.540 C2.802,10.591 3.061,11.405 3.480,12.040 C3.612,12.241 3.808,12.407 3.938,12.637 C4.123,12.963 3.910,13.448 3.818,13.801 C3.709,14.226 3.697,14.813 3.201,14.824 C2.995,14.827 2.737,14.677 2.563,14.580 C1.258,13.859 0.465,12.547 0.140,10.846 C-0.057,9.813 -0.057,8.607 0.140,7.608 C0.331,6.642 0.685,5.750 1.077,5.027 C1.892,3.524 3.084,2.323 4.536,1.464 C5.652,0.804 6.912,0.341 8.444,0.118 C8.952,0.044 9.478,0.013 10.049,-0.013 C11.716,-0.092 13.233,0.286 14.375,0.796 C15.580,1.335 16.541,2.053 17.355,2.942 C18.192,3.857 18.802,4.921 19.189,6.251 C19.390,6.943 19.587,7.683 19.587,8.538 C19.587,9.396 19.405,10.151 19.279,10.906 C18.805,13.735 17.460,16.047 15.441,17.364 C14.952,17.683 14.359,17.977 13.687,18.173 C13.020,18.368 12.259,18.513 11.444,18.456 C10.652,18.402 10.005,18.187 9.460,17.879 C8.920,17.574 8.466,17.201 8.145,16.635 Z" id="path-1" class="cls-2" fill-rule="evenodd"/>
</symbol><symbol id="twitter" viewBox="0 0 26 21" preserveAspectRatio="xMidYMid">
  
  <path d="M17.419,0.007 C19.453,-0.029 20.536,0.712 21.570,1.655 C22.448,1.580 23.589,1.089 24.261,0.748 C24.479,0.629 24.697,0.509 24.914,0.391 C24.531,1.428 24.010,2.239 23.210,2.856 C23.033,2.992 22.856,3.178 22.634,3.265 C22.634,3.268 22.634,3.273 22.634,3.277 C23.773,3.266 24.713,2.751 25.606,2.472 C25.606,2.477 25.606,2.481 25.606,2.486 C25.137,3.231 24.503,3.987 23.825,4.529 C23.552,4.746 23.279,4.963 23.005,5.180 C23.020,6.387 22.987,7.539 22.762,8.553 C21.450,14.448 17.975,18.451 12.473,20.165 C10.498,20.781 7.305,21.033 5.042,20.471 C3.919,20.193 2.905,19.878 1.954,19.463 C1.425,19.231 0.936,18.981 0.468,18.696 C0.314,18.602 0.160,18.508 0.006,18.415 C0.517,18.430 1.114,18.571 1.685,18.479 C2.201,18.395 2.707,18.417 3.184,18.313 C4.372,18.052 5.427,17.707 6.336,17.176 C6.776,16.918 7.445,16.616 7.758,16.244 C7.168,16.254 6.633,16.117 6.195,15.962 C4.496,15.363 3.507,14.259 2.863,12.602 C3.378,12.659 4.861,12.793 5.208,12.500 C4.560,12.465 3.937,12.089 3.491,11.811 C2.125,10.955 1.010,9.521 1.018,7.314 C1.198,7.399 1.377,7.485 1.557,7.569 C1.900,7.714 2.249,7.792 2.658,7.876 C2.832,7.912 3.177,8.013 3.376,7.939 C3.367,7.939 3.359,7.939 3.350,7.939 C3.086,7.633 2.655,7.427 2.389,7.097 C1.513,6.007 0.691,4.330 1.211,2.332 C1.343,1.825 1.552,1.378 1.774,0.965 C1.783,0.969 1.791,0.973 1.800,0.978 C1.902,1.192 2.130,1.348 2.274,1.527 C2.722,2.082 3.274,2.582 3.837,3.021 C5.755,4.522 7.482,5.443 10.256,6.126 C10.960,6.299 11.773,6.431 12.614,6.433 C12.378,5.745 12.454,4.633 12.640,3.967 C13.107,2.294 14.122,1.088 15.612,0.442 C15.968,0.287 16.363,0.174 16.778,0.083 C16.992,0.058 17.205,0.032 17.419,0.007 Z" id="path-1" class="cls-2" fill-rule="evenodd"/>
</symbol></svg>